# xmcd CD database file
#
# Track frame offsets:
#	150
#	17612
#	41797
#	57002
#	74880
#	92895
#	116470
#	132890
#	157072
#
# Disc length: 2331 seconds
#
# Revision: 0
# Processed by: cddbd v1.5.1PL0 Copyright (c) Steve Scherf et al.
# Submitted via: CDex 1.51
#
DISCID=7d091909
DTITLE=Ron Berger - Bamboo Flute Lullabies of Japan
DYEAR=1999
DGENRE=New Age
TTITLE0=Lullabye of Itsuki
TTITLE1=Cherry Blossoms
TTITLE2=Night Has Fallen
TTITLE3=Abandoned Castle in Moonlight
TTITLE4=You're a Good Child
TTITLE5=Lullabye of Chugoko
TTITLE6=Tsugaru Mountain Song
TTITLE7=Lullabye of Shimubara
TTITLE8=Lullabye of Takeda
EXTD=YEAR: 1999
EXTT0=
EXTT1=
EXTT2=
EXTT3=
EXTT4=
EXTT5=
EXTT6=
EXTT7=
EXTT8=
PLAYORDER=
